<?xml version="1.0" encoding="utf-8"?>
<svg viewBox="0 0 500 500" xmlns="http://www.w3.org/2000/svg">
  <g transform="matrix(-19.086384, 0.215799, 0.240638, 21.28322, 246.66283, 248.609669)" style="">
    <path style="stroke: none; stroke-width: 1; stroke-dasharray: none; stroke-linecap: butt; stroke-dashoffset: 0; stroke-linejoin: miter; stroke-miterlimit: 4; fill: rgb(55,103,233); fill-rule: evenodd; opacity: 1;" vector-effect="non-scaling-stroke" transform=" translate(-12, -12)" d="M 14.7303 2.18978 L 5.12107 19.3063 C 4.48282 20.4353 4.87286 22.0012 6.00753 22.6568 C 7.10674 23.3123 8.63145 22.9117 9.2697 21.7463 L 14.0566 13.2245 L 18.8789 4.66621 C 19.5172 3.53725 19.1271 1.97127 17.9925 1.31574 C 16.8933 0.660214 15.3685 1.06081 14.7303 2.18978 Z M 5.12107 2.18978 C 5.75932 1.06081 7.28403 0.660214 8.38324 1.31574 C 9.48245 1.97127 9.90795 3.53725 9.2697 4.66621 L 4.44736 13.2245 C 3.80911 14.3534 2.28439 14.7905 1.18518 14.1349 C 0.0859725 13.443 -0.339528 11.9134 0.298723 10.748 L 5.12107 2.18978 Z M 19.5526 10.748 C 20.1909 9.61908 21.7156 9.18206 22.8148 9.83759 C 23.914 10.4931 24.3395 12.0591 23.7013 13.1881 L 18.8789 21.7827 C 18.2407 22.9117 16.716 23.3487 15.6168 22.6932 C 14.5175 22.0377 14.092 20.4717 14.7303 19.3427 L 19.5526 10.748 Z" stroke-linecap="round"/>
  </g>
</svg>